<?xml version="1.0" standalone="no"?>
<!DOCTYPE svg PUBLIC "-//W3C//DTD SVG 1.1//EN" "http://www.w3.org/Graphics/SVG/1.1/DTD/svg11.dtd" >
<!--
2013-9-30: Created.
-->
<svg>
<metadata>
Created by iconfont
</metadata>
<defs>

<font id="iconfont" horiz-adv-x="1024" >
  <font-face
    font-family="iconfont"
    font-weight="500"
    font-stretch="normal"
    units-per-em="1024"
    ascent="896"
    descent="-128"
  />
    <missing-glyph />
    
    <glyph glyph-name="photo" unicode="&#58912;" d="M846.560427 668.670833L762.801867 668.670833l-27.919179 55.636757c-16.464763 32.373844-25.008756 42.335185-55.837334 42.335185L344.01316 766.642775c-30.851092 0-41.029383-13.251428-55.838358-42.335185l-27.919179-55.636757-83.759583 0c-61.677623 0-111.677739-49.798515-111.677739-111.252023l0-445.078704c0-61.453508 50.000116-111.273514 111.677739-111.273514l670.065411 0c61.678646 0 111.676716 49.818982 111.676716 111.273514L958.238166 557.41881C958.238166 618.872318 908.239073 668.670833 846.560427 668.670833zM902.399808 105.68829600000004c0-30.738523-25.00978-55.636757-55.838358-55.636757L176.493993 50.051540000000045c-30.850068 0-55.837334 24.898234-55.837334 55.636757L120.656658 550.7670009999999c0 30.714986 24.988289 55.63471 55.837334 55.63471l111.677739 0 27.919179 55.617313c19.73029 32.371798 24.988289 55.638804 55.837334 55.638804l279.195883 0c30.828578 0 36.084531-23.267006 55.837334-55.638804l27.918156-55.617313 111.678762 0c30.828578 0 55.838358-24.921771 55.838358-55.63471l0-445.078704L902.399808 105.68829600000004zM511.528233 572.409942c-123.35627 0-223.356501-99.645128-223.356501-222.553168 0-122.884503 100.000232-222.525537 223.356501-222.525537S734.883711 226.97227099999998 734.883711 349.856774C734.883711 472.764814 634.884503 572.409942 511.528233 572.409942zM511.528233 182.97004100000004c-92.528715 0-167.515074 74.719263-167.515074 166.88878 0 92.171564 74.986359 166.912317 167.515074 166.912317 92.506201 0 167.515074-74.740753 167.515074-166.912317C679.04433 257.68827999999996 604.035458 182.97004100000004 511.528233 182.97004100000004z"  horiz-adv-x="1025" />

    
    <glyph glyph-name="dropdown" unicode="&#58886;" d="M839.68 568.3199999999999L184.32 568.3199999999999l327.68-363.52L839.68 568.3199999999999 839.68 568.3199999999999zM839.68 568.3199999999999M870.4 844.8L153.6 844.8C97.28 844.8 51.2 798.72 51.2 742.4l0-716.8c0-56.32 46.08-102.4 102.4-102.4l716.8 0c56.32 0 102.4 46.08 102.4 102.4L972.8 742.4C972.8 798.72 926.72 844.8 870.4 844.8zM921.6 25.600000000000023c0-30.72-20.48-51.2-51.2-51.2L153.6-25.600000000000023c-30.72 0-51.2 20.48-51.2 51.2L102.4 742.4c0 30.72 20.48 51.2 51.2 51.2l716.8 0c30.72 0 51.2-20.48 51.2-51.2L921.6 25.600000000000023z"  horiz-adv-x="1024" />

    
    <glyph glyph-name="quhua" unicode="&#58914;" d="M946.545954 725.346295c-7.391341 6.209422-17.210987 8.839319-26.731828 7.125281l-237.180887-42.196031-60.578704 20.139689c-17.274432 5.750981-35.678594-3.578502-41.386596-20.72502-5.687536-17.146519 3.578502-35.667338 20.72502-41.365106l68.460208-22.759353c1.589195-0.525979 3.215228-0.915859 4.856611-1.196245l0-265.596054-135.363967 41.666982c-11.523451 3.535523-23.707958-2.939959-27.26497-14.420431-3.535523-11.513218 2.918469-23.728424 14.44192-27.26497l148.187017-45.617967 0-273.828552L391.156748 118.94936800000005l0 123.269511c0 12.045337-9.755178 21.811772-21.811772 21.811772s-21.811772-9.766434-21.811772-21.811772l0-123.82005-218.116693-34.229592 0.001023 616.0948c0 18.073634-14.654768 32.717146-32.717146 32.717146s-32.717146-14.644535-32.717146-32.717146L63.981197 45.91293499999995c0-9.56382 4.175089-18.648732 11.460006-24.868387 7.263427-6.209422 16.912182-8.978489 26.327622-7.454786l271.048229 42.536792 303.979246-85.37239c2.87549-0.809435 5.857405-1.213641 8.839319-1.213641 1.959631 0 3.919263 0.181125 5.857405 0.532119l239.906975 43.655266c15.549138 2.822278 26.859741 16.380062 26.859741 32.185027l0.001023 654.351102C958.261787 709.9455370000001 953.980273 719.12664 946.545954 725.346295zM892.826472 385.534959l-174.49315-30.369681 0 275.004331 174.49315 31.039947L892.826472 385.534959zM718.332299 41.458483l0 269.420149 174.49315 30.367635 0-268.035616L718.332299 41.458483zM209.677487 530.072867c10.692526-21.193695 108.99439-159.743214 138.879024-201.704908 6.134721-8.616238 16.060791-13.738909 26.646893-13.738909 0.021489 0 0.063445 0 0.084934 0 10.629081 0.031722 20.555152 5.207605 26.668383 13.888312 29.77821 42.302455 127.717823 181.852768 137.771807 201.214744 13.20679 25.411763 20.470217 55.008848 20.470217 83.327824 0 102.231359-83.178421 185.399547-185.399547 185.399547-102.221126 0-185.399547-83.168188-185.399547-185.399547 0-28.297486 6.816243-56.201 20.277836-82.954317C209.677487 530.0943560000001 209.677487 530.084123 209.677487 530.072867zM374.799198 733.0241619999999c66.138326 0 119.964232-53.815673 119.964232-119.964232 0-17.754363-4.771677-37.137829-13.057387-53.102429-5.709025-10.564613-55.211463-82.411965-106.652042-155.865907-47.223534 66.808592-100.730169 143.639444-106.949824 155.471934-8.797363 17.530258-13.270235 35.529191-13.270235 53.496401C254.834966 679.208489 308.660872 733.0241619999999 374.799198 733.0241619999999zM374.805338 613.0138810000001m-54.528917 0a53.287 53.287 0 1 1 109.057835 0 53.287 53.287 0 1 1-109.057835 0Z"  horiz-adv-x="1024" />

    
    <glyph glyph-name="datetime" unicode="&#59056;" d="M346.639 603.5160000000001h10.884c16.355 0 22.674 23.698 22.674 40.053v130.721c0 16.355-8.163 34.553-24.487 34.553h-10.884c-16.355 0-23.581-18.198-23.581-34.553v-136.192c0-10.884 9.07-34.582 25.395-34.582zM696.203 603.5160000000001h10.884c16.355 0 23.581 23.698 23.581 40.053v130.721c0 16.355-6.32 34.553-22.674 34.553h-10.884c-16.355 0-24.487-18.198-24.487-34.553v-136.192c0-10.884 12.668-34.582 23.581-34.582zM851.471 749.89h-90.931v-57.871h90.931c32.679 0 59.919-32.124 59.919-64.805v-54.477h-768.146v54.477c0 32.679 27.238 64.805 59.919 64.805h89.117v57.871h-83.675c-65.39 0-121.71-68.198-121.71-128.117v-528.443c0-59.919 56.349-132.681 121.71-132.681h648.309c59.919 0 107.081 67.321 107.081 132.681v528.443c-5.413 59.919-47.133 128.117-112.523 128.117zM908.317 98.74300000000005c0-38.122-18.695-79.989-56.847-79.989h-642.838c-32.681 0-63.577 41.867-63.577 74.547v424.96h763.29v-419.518zM643.569 749.89h-234.379v-57.871h234.379v57.871z"  horiz-adv-x="1024" />

    
    <glyph glyph-name="sort" unicode="&#58888;" d="M590.80788 2.781602000000021c-18.303878 0-33.145911-14.862499-33.145911-33.194006 0-18.332531 14.842033-33.19196 33.145911-33.19196 18.304901 0 33.144888 14.859429 33.144888 33.19196C623.951745-12.08089700000005 609.111758 2.781602000000021 590.80788 2.781602000000021zM391.935484 799.429571c0 18.332531-14.838963 33.189913-33.145911 33.189913-18.303878 0-33.145911-14.857383-33.145911-33.189913L325.643662 44.95409700000005 158.010757 193.93724699999996c-14.046924 11.753695-34.95 9.881045-46.686299-4.185322-11.738345-14.066367-9.867742-35.001165 4.179183-46.756907L331.045695-48.56585600000005c5.919826-9.05319 16.131399-15.038508 27.743878-15.038508 14.532995 0 26.872021 9.369392 31.344892 22.402219 2.131547 5.528923 2.713808 11.472286 1.801019 17.200754L391.935484 799.429571zM657.097656 235.13862400000005c0-18.331507 14.84101-33.194006 33.144888-33.194006l198.87035 0c18.305925 0 33.145911 14.862499 33.145911 33.194006 0 18.334577-14.839986 33.19503-33.145911 33.19503L690.242544 268.333654C671.938666 268.333654 657.097656 253.47320100000002 657.097656 235.13862400000005zM590.80788 135.556605c-18.303878 0-33.145911-14.860453-33.145911-33.19196 0-18.331507 14.842033-33.194006 33.145911-33.194006 18.304901 0 33.144888 14.862499 33.144888 33.194006C623.951745 120.69615199999998 609.111758 135.556605 590.80788 135.556605zM838.275042 579.265242c11.738345 14.066367 9.867742 35.000142-4.180206 46.755884L618.538455 817.601442c-5.92085 9.042957-16.126282 15.019065-27.731598 15.019065-14.553461 0-26.909883-9.398044-31.365358-22.462594-2.111081-5.507434-2.686179-11.423167-1.779529-17.126053l0-441.751053c19.772322 18.291598 42.057885 33.894971 66.289776 46.221718L623.951745 724.068186l167.635975-148.988266C805.634644 563.3241780000001 826.535673 565.197852 838.275042 579.265242zM889.112893 135.55865100000005L690.242544 135.55865100000005c-18.303878 0-33.144888-14.859429-33.144888-33.189913 0-18.334577 14.84101-33.199123 33.144888-33.199123l198.87035 0c18.305925 0 33.145911 14.864546 33.145911 33.199123C922.257781 120.69922199999996 907.417795 135.55865100000005 889.112893 135.55865100000005zM889.112893 2.7836489999999685L690.242544 2.7836489999999685c-18.303878 0-33.144888-14.862499-33.144888-33.194006 0-18.331507 14.84101-33.19196 33.144888-33.19196l198.87035 0c18.305925 0 33.145911 14.860453 33.145911 33.19196C922.257781-12.077826999999957 907.417795 2.7836489999999685 889.112893 2.7836489999999685zM590.80788 268.333654c-18.303878 0-33.145911-14.864546-33.145911-33.199123 0-18.327414 14.842033-33.189913 33.145911-33.189913 18.304901 0 33.144888 14.862499 33.144888 33.189913C623.951745 253.469108 609.111758 268.333654 590.80788 268.333654z"  horiz-adv-x="1024" />

    
    <glyph glyph-name="label" unicode="&#58970;" d="M511.950005 896c-282.772386 0-511.950005-229.177619-511.950005-511.950005 0-282.772386 229.177619-511.950005 511.950005-511.950005s511.950005 229.177619 511.950005 511.950005C1023.90001 666.822381 794.6224 896 511.950005 896zM511.950005-51.10750900000005c-240.376526 0-435.157504 194.780978-435.157504 435.157504S271.573479 819.207499 511.950005 819.207499s435.157504-194.780978 435.157504-435.157504S752.22654-51.10750900000005 511.950005-51.10750900000005zM609.940436 249.16316800000004c-12.398789 0-61.094034-71.892979-87.691436-71.892979-7.099307 0-10.598965 5.899424-10.598965 11.798848 0 13.498682 9.699053 34.696612 14.998535 47.395372l63.79377 164.983888c31.896885 82.091983-8.899131 104.089835-46.89542 104.089835-51.394981 0-97.390489-24.497608-132.887023-56.694463-11.498877-10.998926-40.096084-53.694756-40.096084-69.893174 0-5.399473 5.399473-11.698858 11.698858-11.698858 16.198418 0 47.895323 82.491944 80.59213 82.491944 7.099307 0 15.098526-7.599258 8.899131-22.797774l-61.993946-148.88546c-6.199395-14.398594-36.296455-63.69378-36.296455-104.389806 0-32.096866 22.097842-66.593497 53.994727-66.593497 89.491261 0 193.081144 104.889757 193.081144 129.487355C620.5394 244.063666 614.340006 249.16316800000004 609.940436 249.16316800000004zM592.142174 661.222927c-38.996192 0-72.592911-30.497022-72.592911-67.693389 0-34.696612 23.897666-57.594376 60.194122-57.594376 39.796114 0 73.492823 28.797188 73.492823 67.693389C653.336198 638.325164 627.638707 661.222927 592.142174 661.222927z"  horiz-adv-x="1024" />

    
    <glyph glyph-name="multiselect" unicode="&#58908;" d="M732.09344 554.01472c-12.544 12.45184-32.82944 12.31872-45.24544-0.256L453.56544 317.952 350.30528 424.064c-12.35456 12.70272-32.60928 12.928-45.25056 0.64-12.672-12.31872-12.95872-32.60928-0.64-45.25056l126.01856-129.50528c0.06144-0.09728 0.19456-0.09728 0.256-0.18944 0.06656-0.06656 0.09728-0.18944 0.15872-0.256 2.01728-1.98656 4.51072-3.2 6.88128-4.54656 1.24928-0.67072 2.24256-1.792 3.52256-2.304 3.87072-1.60256 8.00256-2.40128 12.09856-2.40128 4.06016 0 8.12544 0.79872 11.96544 2.33472 1.24928 0.51712 2.20672 1.54112 3.39456 2.18112 2.40128 1.34144 4.89472 2.52416 6.94272 4.54144 0.06656 0.06656 0.09728 0.19456 0.19456 0.26112 0.06656 0.09728 0.15872 0.12288 0.256 0.18944l256.22528 259.00544C744.77056 521.3132800000001 744.64256 541.568 732.09344 554.01472zM832-32l-640 0c-52.92544 0-96 43.06944-96 96l0 640c0 52.92544 43.07456 96 96 96l640 0c52.93056 0 96-43.07456 96-96l0-640C928 11.069439999999986 884.93056-32 832-32zM192 736c-17.63328 0-32-14.36672-32-32l0-640c0-17.664 14.36672-32 32-32l640 0c17.664 0 32 14.336 32 32l0 640c0 17.63328-14.336 32-32 32L192 736z"  horiz-adv-x="1024" />

    
    <glyph glyph-name="section" unicode="&#59107;" d="M987.428571 268.57142899999997q0-46.285714-25.428571-77.142858t-70.571429-30.857142q-23.428571 0-44.285714 10t-33.714286 21.714285-32.285714 21.714286-40.571428 10q-62.857143 0-62.857143-70.857143 0-22.285714 9.142857-65.714286t8.571428-65.714285v-2.857143q-12.571429 0-18.857142-0.571429-19.428571-1.714286-55.714286-6.571428T554.857143 4t-56-2.857143q-34.857143 0-58.857143 15.142857t-24 47.714286q0 21.142857 10 40.571429t21.714286 32.285714 21.714285 33.714286T479.428571 214.85714299999995q0 45.142857-30.857142 70.571428T371.428571 310.85714299999995q-48 0-81.714285-26T256 212q0-24.571429 8.571429-47.428571t19.142857-36.857143 19.142857-30.285715 8.571428-28.857142q0-25.714286-26.285714-50.857143-21.142857-20-66.857143-20-54.285714 0-140 13.714285-5.142857 1.142857-15.714285 2.285715t-15.714286 2.285714l-7.428572 1.142857q-0.571429 0-1.714285 0.571429-1.142857 0-1.142857 0.571428V603.4285709999999q1.142857-0.571429 10-2t19.428571-2.857142T78.285714 596.5714290000001q85.714286-13.714286 140-13.714286 45.714286 0 66.857143 20 26.285714 25.142857 26.285714 50.857143 0 12.571429-8.571428 28.857143t-19.142857 30.285714T264.571429 749.714286t-8.571429 47.428571q0 46.857143 33.714286 72.857143T372 896q45.714286 0 76.571429-25.428571T479.428571 800q0-23.428571-10-44.285714t-21.714285-33.714286-21.714286-32.285714-10-40.571429q0-32.571429 24-47.714286T498.857143 586.285714q36.571429 0 102.857143 8.571429t93.142857 9.714286v-1.142858q-0.571429-1.142857-2-10t-2.857143-19.428571-2-12.285714q-13.714286-85.714286-13.714286-140 0-45.714286 20-66.857143 25.142857-26.285714 50.857143-26.285714 12.571429 0 28.857143 8.571428t30.285714 19.142857T841.142857 375.42857100000003t47.428572 8.571429q46.857143 0 72.857142-33.714286t26-81.714285z"  horiz-adv-x="1024" />

    
    <glyph glyph-name="matrix" unicode="&#58942;" d="M959.825022 511.997742V704.060283C959.825022 774.7521 902.517291 832.059831 831.825474 832.059831H191.939717C121.2479 832.059831 63.940169 774.7521 63.940169 704.060283v-639.885757C63.940169-6.517291 121.2479-63.82502199999999 191.939717-63.82502199999999h639.885757c70.691817 0 127.999548 57.307731 127.999548 127.999548V511.997742zM146.66502 749.33498a63.737872 63.737872 0 0 0 45.336109 18.784682h639.997742A63.961844 63.961844 0 0 0 895.884854 703.998871V575.937911H127.880338V703.998871A63.737872 63.737872 0 0 0 146.66502 749.33498z m269.1267-461.308451v223.971213h192.181751v-223.971213h-192.181751z m192.181751-63.940169v-223.971214h-192.181751v223.971214h192.181751z m-256.12192 63.940169H127.880338v223.971213h223.971213v-223.971213z m-205.186531-269.235073a63.466939 63.466939 0 0 0-18.784682 45.209673V224.08636h223.971213v-223.971214H192.001129a63.625887 63.625887 0 0 0-45.336109 18.67631z m749.219834 45.209673A63.763159 63.763159 0 0 0 831.998871 0.11514599999998154H671.91364v223.971214h223.971214v-160.085231z m0 224.0254h-223.971214v223.971213h223.971214v-223.971213z"  horiz-adv-x="1024" />

    
    <glyph glyph-name="minus-square-o" unicode="&#58939;" d="M888 760v-752.992H136V760h752z m0 72H136q-30.016 0-51.008-20.992T64 760v-752.992q0-28.992 20.992-50.496t51.008-21.504h752.992q28.992 0 50.496 21.504t21.504 50.496V760q0 30.016-21.504 51.008T888 832z m-156-484.992H289.984q-14.016 0-24.992 10.496t-11.008 25.504q0 15.008 11.008 25.504t24.992 10.496h442.016q14.016 0 24.992-10.496t11.008-25.504q0-15.008-11.008-25.504t-24.992-10.496z"  horiz-adv-x="1024" />

    
    <glyph glyph-name="assignment" unicode="&#58887;" d="M419.037 608.047h413.124c17.673 0 32 14.327 32 32s-14.327 32-32 32H419.037c-17.673 0-32-14.327-32-32s14.327-32 32-32z m-0.009-255.217h411.608c17.673 0 32 14.327 32 32s-14.327 32-32 32H419.028c-17.673 0-32-14.327-32-32s14.327-32 32-32z m413.133-192.632H419.037c-17.673 0-32-14.327-32-32s14.327-32 32-32h413.124c17.673 0 32 14.327 32 32s-14.327 32-32 32zM192.037 640.047a64 64 0 1 1 128 0 64 64 0 1 1-128 0zM192.037 385.213a64 64 0 1 1 128 0 64 64 0 1 1-128 0zM192.037 128.37900000000002a64 64 0 1 1 128 0 64 64 0 1 1-128 0z"  horiz-adv-x="1024" />

    
    <glyph glyph-name="singleselect" unicode="&#58990;" d="M512 830.017C266.08 830.017 65.983 629.9200000000001 65.983 384c0-245.952 200.065-446.017 446.017-446.017S958.017 138.048 958.017 384c0 245.92-200.065 446.017-446.017 446.017z m0-828.034c-210.656 0-382.017 171.392-382.017 382.017 0 210.656 171.36 382.017 382.017 382.017 210.625 0 382.017-171.36 382.017-382.017 0-210.625-171.392-382.017-382.017-382.017zM512 544c-88.224 0-160-71.776-160-160s71.774-160 160-160 160 71.774 160 160-71.776 160-160 160z"  horiz-adv-x="1024" />

    
    <glyph glyph-name="page" unicode="&#58903;" d="M907.636364 787.911111v-264.791919H116.363636V787.911111h65.962667v-198.595232h659.415919V787.911111zM116.363636-23.78989899999999V241.00202000000002h791.272728v-264.791919h-65.894142V174.80533300000002H182.326303V-23.78989899999999zM116.363636 430.545455h791.272728v-94.383839H116.363636z"  horiz-adv-x="1024" />

    
    <glyph glyph-name="location" unicode="&#58892;" d="M512-64.10000000000002c-11.7 0-23.4 3.9-32.9 11.7-71.7 58.8-338.5 336.7-338.5 513.1 0 204.8 166.6 371.4 371.4 371.4s371.4-166.6 371.4-371.4c0-176.4-266.9-454.3-338.5-513.1-9.6-7.8-21.2-11.7-32.9-11.7z m0 840.2c-173.9 0-315.4-141.5-315.4-315.4 0-144.2 235.9-401 315.4-467.6 79.5 66.7 315.4 323.4 315.4 467.6 0 173.9-141.5 315.4-315.4 315.4zM514.9 643.8c-82.2 0-148.8-66.6-148.8-148.8 0-82.2 66.6-148.8 148.8-148.8S663.7 412.8 663.7 495c0 82.1-66.6 148.8-148.8 148.8z m0-251.9c-56.9 0-103 46.1-103 103s46.1 103 103 103 103-46.1 103-103c0-56.8-46.1-103-103-103z"  horiz-adv-x="1024" />

    
    <glyph glyph-name="text" unicode="&#58883;" d="M636.8 201.60000000000002l-249.6 0 0 21.6c11.2 4 22.4 7.2 33.6 10.4 11.2 3.2 23.2 5.6 36 7.2l0 436.8-95.2 0-40-104.8-18.4 0c-1.6 9.6-2.4 20.8-4 33.6s-1.6 24.8-2.4 38.4c-0.8 12.8-1.6 25.6-1.6 38.4s-0.8 24-0.8 33.6l435.2 0c0-9.6 0-20.8-0.8-32.8-0.8-12-0.8-24.8-1.6-37.6s-1.6-25.6-2.4-38.4-1.6-24-3.2-34.4l-20 0-39.2 104.8L568 678.4l0-436.8c12.8-2.4 24.8-4.8 36-7.2 11.2-2.4 22.4-5.6 32.8-10.4L636.8 201.60000000000002 636.8 201.60000000000002zM842.75-96h-668.25c-66 0-119.25 53.25-119.25 119.25v715.5c0 66 54 125.25 120 125.25h673.5c66 0 120-54 120-120v-720c0-66-60-120-126-120v0 0zM908.75 744c0 33-27 60-60 60h-673.5c-33 0-60.75-32.25-60.75-65.25v-715.5c0-33 27-60 60-60h668.25c33 0 65.25 27.75 65.25 60v720.75h0.75zM752 63h-480c-16.5 0-30 13.5-30 30s13.5 30 30 30h480c16.5 0 30-13.5 30-30s-13.5-30-30-30v0 0z"  horiz-adv-x="1024" />

    
    <glyph glyph-name="textarea" unicode="&#58947;" d="M774.826667 404.48h-187.733334c-20.48 0-34.133333-13.653333-34.133333-34.133333v-6.826667c0-20.48 13.653333-34.133333 34.133333-34.133333h187.733334c20.48 0 34.133333 13.653333 34.133333 34.133333v6.826667c0 20.48-17.066667 34.133333-34.133333 34.133333zM225.28 476.16l34.133333 47.786667h88.746667v-331.093334H286.72V145.06666700000005h174.08v47.786666h-58.026667v331.093334h85.333334l34.133333-47.786667V599.04H225.28v-122.88z m549.546667-232.106667h-187.733334c-20.48 0-34.133333-13.653333-34.133333-34.133333v-6.826667c0-20.48 13.653333-34.133333 34.133333-34.133333h187.733334c20.48 0 34.133333 13.653333 34.133333 34.133333v6.826667c0 20.48-17.066667 34.133333-34.133333 34.133333z m0 324.266667h-187.733334c-20.48 0-34.133333-13.653333-34.133333-34.133333v-6.826667c0-20.48 13.653333-34.133333 34.133333-34.133333h187.733334c20.48 0 34.133333 13.653333 34.133333 34.133333v6.826667c0 17.066667-17.066667 34.133333-34.133333 34.133333z m71.68 249.173333h-648.533334c-58.026667 0-102.4-44.373333-102.4-102.4v-689.493333c0-58.026667 44.373333-102.4 102.4-102.4h648.533334c58.026667 0 102.4 44.373333 102.4 102.4V715.093333c0 58.026667-44.373333 102.4-102.4 102.4z m34.133333-788.48c0-20.48-13.653333-34.133333-34.133333-34.133333h-648.533334c-20.48 0-34.133333 13.653333-34.133333 34.133333V715.093333c0 20.48 13.653333 34.133333 34.133333 34.133334h648.533334c20.48 0 34.133333-13.653333 34.133333-34.133334v-686.08z"  horiz-adv-x="1024" />

    
    <glyph glyph-name="matrix-single" unicode="&#59132;" d="M155.2 140.29999999999995c-25.3 0-45.9 20.4-45.9 45.6V733.2c0 25.2 20.5 45.6 45.9 45.6h550.6c25.3 0 45.9-20.4 45.9-45.6v-75.9h45.9V778.8c0 25.2-20.5 45.6-45.9 45.6H109.4c-25 0-45.2-19.9-45.8-44.6v-640.6c0.6-24.7 20.8-44.6 45.8-44.6h121.4v45.6h-75.6zM914.5 673.3H272.2c-25 0-45.2-19.9-45.8-44.6v-640.6c0.6-24.7 20.8-44.6 45.8-44.6h642.4c25.3 0 45.9 20.4 45.9 45.6V627.7c-0.1 25.2-20.6 45.6-46 45.6z m0-638.5c0-25.2-20.5-45.6-45.9-45.6H318c-25.3 0-45.9 20.4-45.9 45.6V582.1c0 25.2 20.5 45.6 45.9 45.6H868.7c25.3 0 45.9-20.4 45.9-45.6v-547.3zM593.4 543.8c-129.4 0-235.3-105.9-235.3-235.3S464 73.20000000000005 593.4 73.20000000000005s235.3 105.9 235.3 235.3-105.9 235.3-235.3 235.3z m0-411.8c-97.1 0-176.5 79.4-176.5 176.5S496.3 485 593.4 485s176.5-79.4 176.5-176.5S690.5 132 593.4 132z m0 58.8c65 0 117.7 52.7 117.7 117.7s-52.7 117.7-117.7 117.7-117.7-52.7-117.7-117.7 52.7-117.7 117.7-117.7z m0 0"  horiz-adv-x="1024" />

    
    <glyph glyph-name="matrix-multi" unicode="&#59135;" d="M154.9 149.60000000000002c-25.2 0-45.6 20.3-45.6 45.4V739.3c0 25.1 20.4 45.4 45.6 45.4h547.7c25.2 0 45.6-20.3 45.6-45.4v-75.5H794V784.7c0 25.1-20.4 45.4-45.6 45.4h-639c-24.8 0-45-19.8-45.5-44.3v-637.2c0.6-24.6 20.7-44.3 45.5-44.3H230v45.4h-75.1zM321.2 618.4h427.1v45.4H275.6c-24.8 0-45-19.8-45.5-44.3v-469.9h45.5V573.1c0 25 20.4 45.3 45.6 45.3zM914.6 663.8H794v-45.4h75c25.2 0 45.6-20.3 45.6-45.4v-544.4c0-25.1-20.4-45.4-45.6-45.4H321.2c-25.2 0-45.6 20.3-45.6 45.4v75.5H230v-122c0.6-24.6 20.7-44.3 45.5-44.3h639c25.2 0 45.6 20.3 45.6 45.4V618.4c0.1 25.1-20.3 45.4-45.5 45.4zM230 149.60000000000002h45.5v-45.4H230zM748.3 663.8h45.6v-45.4h-45.6zM862.4 550.8l-13-7.9c-160-97.4-275.6-219.3-324.9-276.2L398 365.20000000000005l-76.7-61.1L567.8 55l7.5 19c35.9 90.7 153.8 279.9 303.5 416.6l7 6.4-23.4 53.8z"  horiz-adv-x="1024" />

    
    <glyph glyph-name="R" unicode="&#58885;" d="M728.576-128l-256 441.856H281.088V-128H164.864V896h313.344C686.592 896 832 821.76 832 611.84c0-160.768-93.696-254.464-237.568-286.72L858.624-128H728.576zM281.088 409.088h179.2c164.864 0 256 65.536 256 202.752 0 139.776-91.136 190.464-256 190.464h-179.2v-393.216z"  horiz-adv-x="1024" />

    
    <glyph glyph-name="import-lang" unicode="&#59914;" d="M736 96h-96a32 32 0 0 0 0 64h64V608H320v-160a32 32 0 0 0-64 0V640a32 32 0 0 0 32 32h448a32 32 0 0 0 32-32v-512a32 32 0 0 0-32-32z m-320 0a31.968 31.968 0 0 0-22.72 54.72L466.56 224l-73.28 73.28a32 32 0 0 0 45.12 45.12l96-96a32 32 0 0 0 0-45.12l-96-96a31.968 31.968 0 0 0-22.4-9.28z m96 96H288a32 32 0 0 0 0 64h224a32 32 0 0 0 0-64z"  horiz-adv-x="1024" />

    
    <glyph glyph-name="export-lang" unicode="&#59915;" d="M256.352 548.512a32 32 0 0 0 10.88 19.776l94.08 94.08a32 32 0 0 0 45.12-45.12L365.152 576h146.88a32 32 0 0 0 0-64h-146.88l41.28-41.28a32.032 32.032 0 0 0-45.12-45.44l-96 96a31.872 31.872 0 0 0-8.96 27.232zM736.032 96h-448a32 32 0 0 0-32 32v192a32 32 0 0 0 64 0v-160h384V608h-64a32 32 0 0 0 0 64h96a32 32 0 0 0 32-32v-512a32 32 0 0 0-32-32z"  horiz-adv-x="1024" />

    
    <glyph glyph-name="style" unicode="&#59199;" d="M847.47377778 873.19134815H186.53108149L20.992 777.19324445v-322.82548149h121.2416v-564.21641481h740.79952592V454.2464H1004.032v327.68L847.47377778 873.19134815zM503.53114075 496.60207408l-205.10340741 291.27111111h418.09540741l-212.992-291.27111111z"  horiz-adv-x="1024" />

    


  </font>
</defs>
</svg>
